<svg xmlns="http://www.w3.org/2000/svg" width="15.571" height="9.083" viewBox="0 0 15.571 9.083">
  <g id="_001-visibility" data-name="001-visibility" transform="translate(0 -106.662)">
    <g id="Group_6" data-name="Group 6" transform="translate(0 106.662)">
      <g id="Group_5" data-name="Group 5" transform="translate(0 0)">
        <path id="Path_5" data-name="Path 5" d="M15.514,111.019c-.123-.178-3.07-4.357-7.728-4.357-4,0-7.559,4.155-7.709,4.332a.326.326,0,0,0,0,.419c.15.177,3.712,4.332,7.709,4.332s7.559-4.155,7.709-4.332A.324.324,0,0,0,15.514,111.019ZM7.786,115.1c-3.2,0-6.251-3.056-7.025-3.893.773-.838,3.816-3.893,7.025-3.893,3.75,0,6.4,3.051,7.042,3.875C14.082,112,11.018,115.1,7.786,115.1Z" transform="translate(0 -106.662)"/>
      </g>
    </g>
    <g id="Group_8" data-name="Group 8" transform="translate(5.191 108.608)">
      <g id="Group_7" data-name="Group 7" transform="translate(0 0)">
        <path id="Path_6" data-name="Path 6" d="M173.257,170.662a2.6,2.6,0,1,0,2.6,2.6A2.6,2.6,0,0,0,173.257,170.662Zm0,4.542a1.946,1.946,0,1,1,1.946-1.946A1.949,1.949,0,0,1,173.257,175.2Z" transform="translate(-170.662 -170.662)"/>
      </g>
    </g>
  </g>
</svg>
