<svg id="_002-instagram-logo" data-name="002-instagram-logo" xmlns="http://www.w3.org/2000/svg" width="12.865" height="12.866" viewBox="0 0 12.865 12.866">
  <path id="Path_1" data-name="Path 1" d="M9.315,0H3.55A3.554,3.554,0,0,0,0,3.55V9.315a3.554,3.554,0,0,0,3.55,3.55H9.315a3.554,3.554,0,0,0,3.55-3.55V3.55A3.554,3.554,0,0,0,9.315,0Zm2.409,9.315a2.412,2.412,0,0,1-2.409,2.409H3.55A2.412,2.412,0,0,1,1.141,9.315V3.55A2.412,2.412,0,0,1,3.55,1.141H9.315A2.412,2.412,0,0,1,11.724,3.55V9.315Z"/>
  <path id="Path_2" data-name="Path 2" d="M44.283,40.97A3.315,3.315,0,1,0,47.6,44.285,3.319,3.319,0,0,0,44.283,40.97Zm0,5.489a2.174,2.174,0,1,1,2.174-2.173A2.176,2.176,0,0,1,44.283,46.459Z" transform="translate(-37.85 -37.852)"/>
  <path id="Path_3" data-name="Path 3" d="M119.758,28.251a.837.837,0,1,0,.592.245A.84.84,0,0,0,119.758,28.251Z" transform="translate(-109.871 -26.101)"/>
</svg>
