<svg xmlns="http://www.w3.org/2000/svg" width="19.989" height="19.988" viewBox="0 0 19.989 19.988">
  <g id="_002-instagram-logo" data-name="002-instagram-logo" transform="translate(0)">
    <path id="Path_1" data-name="Path 1" d="M14.472,0H5.516A5.522,5.522,0,0,0,0,5.516v8.956a5.522,5.522,0,0,0,5.516,5.516h8.956a5.522,5.522,0,0,0,5.516-5.516V5.516A5.522,5.522,0,0,0,14.472,0Zm3.743,14.472a3.747,3.747,0,0,1-3.743,3.743H5.516a3.747,3.747,0,0,1-3.743-3.743V5.516A3.747,3.747,0,0,1,5.516,1.773h8.956a3.747,3.747,0,0,1,3.743,3.743v8.956Z" transform="translate(0)" fill="#fff"/>
    <path id="Path_2" data-name="Path 2" d="M46.119,40.97a5.15,5.15,0,1,0,5.151,5.151A5.156,5.156,0,0,0,46.119,40.97Zm0,8.527A3.377,3.377,0,1,1,49.5,46.12,3.381,3.381,0,0,1,46.119,49.5Z" transform="translate(-36.124 -36.126)" fill="#fff"/>
    <path id="Path_3" data-name="Path 3" d="M120.222,28.251a1.3,1.3,0,1,0,.92.381A1.306,1.306,0,0,0,120.222,28.251Z" transform="translate(-104.86 -24.911)" fill="#fff"/>
  </g>
</svg>
